<?xml version="1.0" encoding="UTF-8"?>
<!DOCTYPE svg PUBLIC "-//W3C//DTD SVG 1.1//EN" "http://www.w3.org/Graphics/SVG/1.1/DTD/svg11.dtd">
<!-- Creator: CorelDRAW 2021 (64 Bit) -->
<svg xmlns="http://www.w3.org/2000/svg" xml:space="preserve" width="130.792mm" height="81.9725mm" version="1.1" style="shape-rendering:geometricPrecision; text-rendering:geometricPrecision; image-rendering:optimizeQuality; fill-rule:evenodd; clip-rule:evenodd"
viewBox="0 0 12424.03 7786.6"
 xmlns:xlink="http://www.w3.org/1999/xlink"
 xmlns:xodm="http://www.corel.com/coreldraw/odm/2003">
 <defs>
  <style type="text/css">
   <![CDATA[
    .fil0 {fill:black}
   ]]>
  </style>
 </defs>
 <g id="Camada_x0020_1">
  <metadata id="CorelCorpID_0Corel-Layer"/>
  <g id="_2014532578656">
   <path class="fil0" d="M858.13 5250.21c-213.4,0 -518.85,-41.77 -746.43,183.62 -162.26,160.7 -154.44,446.83 67.75,595.61 -101.22,422.82 365.49,653.54 628.41,653.54 8.57,384.42 414.83,578.14 829.5,578.14 143.54,0 197.87,-50.28 301.63,-50.28 33.58,0 227.83,96.81 336.2,116.26 126.92,22.79 323.11,-23.4 422.19,30.26 52.22,28.28 348.04,382.83 935.45,215.09l216.52 -110.25c132.09,0 174.09,48.29 325.87,51.18 203.93,3.87 210.83,-41.06 336.46,65.72 252.31,214.5 734.4,288.5 1037.11,97.61 196.56,-123.94 45.23,11.71 487.43,11.71 194.46,0 235.52,-30.53 352.65,-76.73 121.96,-48.09 727.29,172.7 994.7,-234.9 152.89,-233.04 -51.3,-34.77 207.75,-244.7 304.2,-246.53 75.71,-533.17 69.3,-559.72 -10.97,-45.42 34.6,-153.54 34.6,-316.71 0,-413.74 -367.62,-804.37 -779.23,-804.37 -208.14,0 -329.91,-0.04 -523.44,131.85 -122.22,83.29 -44.24,48.99 -157.54,49.17 -204.56,0.32 -334.42,72.9 -408.72,53.14 -111.63,-29.69 -174.71,-155.74 -617.73,-128.09 -100.37,6.26 -44.11,32.15 -294.12,-165.69 -89.7,-70.99 -255.92,-644.18 -889.13,-644.18 -395.66,0 -628.81,240.55 -804.37,502.73 -113.1,-26.35 -167.82,-80.8 -315.37,-111.95 -124.43,-26.26 -278.27,-13.74 -413.58,-13.74 -39.54,-475.07 -852.91,-911.8 -1376.96,-396.64 -116.3,114.33 -252.11,307.38 -256.9,522.32z"/>
   <path class="fil0" d="M9932.35 4546.38c-103.28,-8.6 -56.15,-25.13 -150.82,-25.13 -239.44,0 -421.58,67.98 -578.13,150.82 -395.94,-748.28 -1329.97,-583.36 -1600.24,-16.64 -136.08,285.36 -48.18,87.38 -214.88,237.58 -53.53,48.22 -37,56.51 -101.39,74.56 -103.66,29.07 -396.78,-40.19 -571.99,81.55 473.56,0 884.12,135.85 1142.08,516.93 337.24,498.21 159.34,750.13 232.9,998.78 51.58,174.35 57.79,155.36 57.79,369.52 399.48,0 308.57,-126.89 478.76,-28.64 123.45,71.27 294.56,128.98 467.4,117.67 477.25,-31.21 523.94,-182.51 641.99,-257.79 81.75,-52.13 11.2,-0.89 246.92,-5.91 285.61,-6.08 385.78,-112.85 468.64,-134.89 59.38,-15.79 129.26,19.57 233.12,35.17 383.95,57.69 922.19,-115.04 931.99,-555.11 291.47,-24.26 653.54,-249.68 653.54,-553.01 0,-133.34 -106.46,37.53 60.26,-190.43 319.54,-436.94 -238.41,-811.81 -764.08,-689.35 -4.85,-218.08 -120.75,-382.27 -226.12,-502.83 -453.08,-518.42 -1395.57,-169.37 -1407.75,377.15z"/>
   <path class="fil0" d="M858.13 3742.02c-197.47,0 -348.66,36.79 -486.6,116.68 -473.69,274.35 -104.55,626.81 -87.71,658.72 79.01,149.75 -69.02,355.74 172.12,355.74 157.9,0 147.15,-121.37 222.08,-230.38 390,-567.41 1156.38,-692.91 1724.37,-308.42 89.1,60.31 136.93,119.5 209.51,192.66 182.87,184.32 40.25,197.23 369.41,238.06 143.45,17.79 65.83,19.52 257.34,-125.57 40.9,-30.99 71.77,-55.21 118.03,-83.07 340.3,-205.07 781.93,-251.72 1153.94,-93.18 162.09,69.08 218.96,124.95 344.19,208.81 89.3,-20.8 69.4,-26.38 136.63,-64.46 358.24,-202.89 805.02,-172.97 1169.52,15.12 215.37,111.14 379.83,57.43 538.55,8.87 137.73,-42.13 461.53,-39.03 537.22,-116.38 41,-41.91 74.99,-136.5 123.89,-202.88 58.07,-78.83 113.3,-125.54 158.64,-193.27 -728.21,-385.32 -925.95,-5.18 -1083.38,22.62 -99.04,17.49 -177.86,2.43 -277.56,24.81 -328.82,73.81 -100.7,22.49 -427.8,-68.51 -82.7,-23.01 -140.98,-30.92 -246.83,-29.67 -294.98,3.49 -170.49,5.25 -342.01,-110.45 -33.2,-22.39 -74.35,-41.24 -93.62,-57.19 -87.25,-72.23 -23.48,-45.27 -112.49,-189.14 -488.35,-789.4 -1449.1,-373.97 -1563.81,55.62 -139.11,-32.41 -245.98,-132.37 -531.49,-147.44 -112.38,-5.94 -77.98,19.1 -197.46,21.76 -78.27,-335.95 -423.72,-628.41 -728.96,-628.41 -281.61,0 -515.41,36.61 -722.18,283.27 -170.97,203.94 -163.97,359.1 -188.54,416.44 -47.57,111.02 -18.16,29.25 -145,29.25z"/>
   <path class="fil0" d="M9153.12 449.16c-159.54,-84.42 -288.83,-106.62 -441.67,10.78 -146.19,112.31 -7.28,55.92 -220.75,106.03 -565.64,132.78 -595.08,943.17 34.01,1089.73 0,154.41 25.89,217.13 105.58,296.61 316.12,315.32 595.23,-9.56 648.51,-45.24 519.53,274.9 350.49,-25.57 560.33,116.21 259.03,175.01 564.35,71.13 621.09,-141.35 112.77,30.11 128.33,100.55 301.63,100.55 215.86,0 361.46,-151.97 402.18,-326.78 250.25,0 369.14,4.9 509.6,-118.81 426.76,-375.88 181.29,-987.18 -409.05,-987.18 -304.23,-454.32 -490.08,-184.78 -636,-293.81 -76.93,-57.48 -153.07,-140.48 -324.15,-152.29 -131,-9.03 -288.77,65.07 -346.93,144.45 -142.48,-95.4 -256.91,-179.48 -476.25,-125.54 -169.09,41.6 -288.37,156.03 -328.12,326.63z"/>
   <path class="fil0" d="M1913.86 926.75c-162.18,-85.8 -216.98,-62.58 -345.62,31.43 -109.42,79.95 -72.68,17.88 -217.43,84.2 -335.12,153.54 -337.52,659.75 110.6,764.14 0,360.95 471.16,388.33 527.87,175.96 90.24,24.1 116.09,100.55 226.22,100.55 121.8,0 94.28,-39.97 187.84,-12.14 64.56,19.21 152.14,139.65 345.13,43.06 68.97,-34.52 87.15,-68.3 120.58,-131.47 197.42,45.99 326.56,204.47 527.86,-175.96 711.44,0 608.54,-672.76 233.77,-786.77 -67.67,-20.59 -50.26,-6.13 -107.52,-18.16 -112.84,-23.71 -25.62,14.35 -86.94,-38.76 -135.1,-117 -54.62,-149.99 -316.62,-160.96 -281.45,-11.78 -103.78,-126.48 -401.38,-126.48 -95.02,0 -167.66,61.33 -226.22,100.54 -105.9,-70.91 -90.88,-100.54 -276.51,-100.54 -146.14,0 -272.99,128.42 -301.63,251.35z"/>
   <path class="fil0" d="M5357.54 1856.8c0,317.23 48.7,463.36 257.19,672.86 539.66,542.29 1477.22,159.96 1477.22,-622.6 0,-451.88 -421.24,-854.64 -779.23,-854.64l-150.82 0c-407.58,0 -804.37,396.78 -804.37,804.37z"/>
   <path class="fil0" d="M5131.31 4973.71c69.15,296.81 275,138.33 641.24,263.82 361.3,123.8 536.94,-98.1 716.12,-113l0 -50.28c-121.78,0 -125.15,-20.08 -252.22,-24.28 -361.26,-11.94 -471.83,-411.38 -1105.15,-76.26z"/>
   <path class="fil0" d="M4301.81 1881.93c0,266.61 246.93,251.36 427.31,251.36 292.5,0 326.74,-248.37 230.44,-356.12 -97.94,-109.57 -482.68,-98.9 -577.38,-15.96 -21.33,18.68 -80.37,96.11 -80.37,120.71z"/>
   <path class="fil0" d="M7016.53 901.61c0,98.11 124.6,393.55 446.47,69.43 65.94,-66.41 158.97,-134.65 167.67,-249.51 7.33,-96.94 -67.63,-222.1 -186.82,-222.1 -153.6,0 -427.32,258.05 -427.32,402.18z"/>
   <path class="fil0" d="M6011.08 222.93c0,165.4 -39.65,477.59 201.09,477.59 312.49,0 241.33,-538.18 170.84,-623.3 -127.97,-154.52 -371.93,-62.38 -371.93,145.71z"/>
   <path class="fil0" d="M4804.54 3113.62c0,113.34 145.6,373.36 446.47,69.43 65.32,-65.99 166.38,-151.46 174.59,-248.97 8.58,-101.66 -91.44,-222.64 -193.75,-222.64 -153.6,0 -427.31,258.05 -427.31,402.18z"/>
   <path class="fil0" d="M7443.86 1907.07c0,340.89 538.34,212.62 586.42,184.24 163.79,-96.64 110.54,-385.33 -108.83,-385.33 -218.25,0 -477.59,-47.78 -477.59,201.09z"/>
   <path class="fil0" d="M6011.08 3339.84c0,307.21 -47.58,477.58 251.36,477.58 230.42,0 265.89,-678.68 -25.13,-678.68 -134.76,0 -226.23,59.16 -226.23,201.09z"/>
   <path class="fil0" d="M7016.53 2887.39c0,146.97 54.39,169.1 144.41,257.78 148.64,146.43 111.51,169.54 282.91,169.54 194.47,0 232.48,-213.05 133.36,-333.76 -400.83,-488.12 -560.68,-172.32 -560.68,-93.56z"/>
   <path class="fil0" d="M4804.54 700.53c0,93.83 315.34,559.8 543.01,367.59 133.4,-112.62 80.28,-237.89 -20.48,-337.11 -63.64,-62.68 -198.29,-231.58 -296.3,-231.58 -112.09,0 -226.23,101.79 -226.23,201.09z"/>
  </g>
 </g>
</svg>
